<svg width="49" height="48" viewBox="0 0 49 48" fill="none" xmlns="http://www.w3.org/2000/svg">
<path d="M17.6923 23.3846C18.8359 23.3846 19.8103 22.9853 20.6154 22.1866C21.4205 21.3878 22.0064 20.4295 22.3731 19.3116L20.6654 18.8807C20.4218 19.6141 20.0532 20.2532 19.5596 20.798C19.066 21.3429 18.4436 21.6154 17.6923 21.6154C16.941 21.6154 16.3186 21.3429 15.825 20.798C15.3314 20.2532 14.9628 19.6141 14.7193 18.8807L13.0116 19.3116C13.3782 20.4295 13.9641 21.3878 14.7693 22.1866C15.5744 22.9853 16.5487 23.3846 17.6923 23.3846ZM24.5109 34.3846C25.6498 34.3846 26.7423 34.1442 27.7885 33.6635C28.8346 33.1827 29.8103 32.4744 30.7154 31.5385L29.4384 30.3462C28.6795 31.0692 27.8833 31.6199 27.05 31.9981C26.2167 32.3763 25.3667 32.5654 24.5 32.5654C23.6333 32.5654 22.7833 32.3763 21.95 31.9981C21.1167 31.6199 20.3205 31.0692 19.5615 30.3462L18.2846 31.5385C19.2231 32.5 20.2107 33.2147 21.2474 33.6827C22.2841 34.1506 23.3719 34.3846 24.5109 34.3846ZM31.3077 23.3846C32.4513 23.3846 33.4256 22.9853 34.2307 22.1866C35.0359 21.3878 35.6218 20.4295 35.9884 19.3116L34.2808 18.8807C34.0372 19.6141 33.6686 20.2532 33.175 20.798C32.6814 21.3429 32.059 21.6154 31.3077 21.6154C30.5564 21.6154 29.934 21.3429 29.4404 20.798C28.9468 20.2532 28.5782 19.6141 28.3346 18.8807L26.6269 19.3116C26.9936 20.4295 27.5795 21.3878 28.3846 22.1866C29.1897 22.9853 30.1641 23.3846 31.3077 23.3846ZM24.5067 42C22.0176 42 19.6774 41.5277 17.4862 40.583C15.295 39.6384 13.3889 38.3563 11.7679 36.737C10.147 35.1176 8.86383 33.2133 7.9183 31.0241C6.97277 28.8349 6.5 26.4958 6.5 24.0067C6.5 21.5176 6.97232 19.1774 7.91695 16.9862C8.86162 14.795 10.1437 12.8889 11.7631 11.268C13.3825 9.64705 15.2867 8.36383 17.4759 7.4183C19.6651 6.47277 22.0042 6 24.4933 6C26.9824 6 29.3226 6.47232 31.5138 7.41695C33.705 8.36162 35.6111 9.64365 37.232 11.263C38.853 12.8824 40.1362 14.7867 41.0817 16.9759C42.0272 19.1651 42.5 21.5042 42.5 23.9933C42.5 26.4824 42.0277 28.8226 41.083 31.0138C40.1384 33.205 38.8563 35.1111 37.237 36.732C35.6176 38.353 33.7133 39.6362 31.5241 40.5817C29.3349 41.5272 26.9958 42 24.5067 42ZM24.5 40C28.9667 40 32.75 38.45 35.85 35.35C38.95 32.25 40.5 28.4667 40.5 24C40.5 19.5333 38.95 15.75 35.85 12.65C32.75 9.55 28.9667 8 24.5 8C20.0333 8 16.25 9.55 13.15 12.65C10.05 15.75 8.5 19.5333 8.5 24C8.5 28.4667 10.05 32.25 13.15 35.35C16.25 38.45 20.0333 40 24.5 40Z" fill="#0A0C0D"/>
</svg>
