<svg width="49" height="48" viewBox="0 0 49 48" fill="none" xmlns="http://www.w3.org/2000/svg">
<path d="M29.2768 22.8846C28.7512 22.8846 28.3045 22.7032 27.9366 22.3403C27.5686 21.9774 27.3846 21.5332 27.3846 21.0076C27.3846 20.482 27.566 20.0353 27.9289 19.6673C28.2918 19.2994 28.7361 19.1154 29.2616 19.1154C29.7872 19.1154 30.234 19.2968 30.6019 19.6597C30.9699 20.0226 31.1539 20.4668 31.1539 20.9924C31.1539 21.518 30.9724 21.9647 30.6095 22.3327C30.2466 22.7006 29.8024 22.8846 29.2768 22.8846ZM19.7383 22.8846C19.2128 22.8846 18.766 22.7032 18.3981 22.3403C18.0301 21.9774 17.8462 21.5332 17.8462 21.0076C17.8462 20.482 18.0276 20.0353 18.3905 19.6673C18.7534 19.2994 19.1976 19.1154 19.7232 19.1154C20.2488 19.1154 20.6955 19.2968 21.0635 19.6597C21.4314 20.0226 21.6154 20.4668 21.6154 20.9924C21.6154 21.518 21.4339 21.9647 21.071 22.3327C20.7081 22.7006 20.2639 22.8846 19.7383 22.8846ZM24.5 32.4615C22.8846 32.4615 21.4032 32.059 20.0557 31.2539C18.7083 30.4487 17.6256 29.3641 16.8077 28H32.1923C31.3744 29.3641 30.2917 30.4487 28.9443 31.2539C27.5968 32.059 26.1154 32.4615 24.5 32.4615ZM24.5022 40C22.2828 40 20.2032 39.5827 18.2635 38.7481C16.3237 37.9135 14.6288 36.7711 13.1788 35.3211C11.7288 33.8711 10.5865 32.177 9.7519 30.2388C8.9173 28.3004 8.5 26.2216 8.5 24.0022C8.5 21.7828 8.9173 19.7032 9.7519 17.7634C10.5865 15.8237 11.7288 14.1289 13.1788 12.6789C14.6288 11.2289 16.323 10.0865 18.2613 9.2519C20.1996 8.4173 22.2784 8 24.4978 8C26.7172 8 28.7968 8.4173 30.7366 9.2519C32.6763 10.0865 34.3711 11.2289 35.8211 12.6789C37.2711 14.1289 38.4135 15.823 39.2481 17.7612C40.0827 19.6995 40.5 21.7784 40.5 23.9978C40.5 26.2172 40.0827 28.2968 39.2481 30.2365C38.4135 32.1763 37.2711 33.8711 35.8211 35.3211C34.3711 36.7711 32.677 37.9135 30.7388 38.7481C28.8005 39.5827 26.7216 40 24.5022 40ZM24.5 38C28.3667 38 31.6667 36.6333 34.4 33.9C37.1333 31.1667 38.5 27.8667 38.5 24C38.5 20.1333 37.1333 16.8333 34.4 14.1C31.6667 11.3667 28.3667 10 24.5 10C24.1376 10 23.7752 10.0128 23.4128 10.0384C23.0504 10.0641 22.7052 10.1102 22.377 10.1769C22.2795 10.4282 22.2231 10.6449 22.2077 10.8269C22.1923 11.009 22.1846 11.2333 22.1846 11.5C22.1846 12.3538 22.4904 13.0865 23.102 13.6981C23.7135 14.3096 24.45 14.6154 25.3116 14.6154C25.6808 14.6154 25.9712 14.5654 26.1827 14.4654C26.3942 14.3654 26.6333 14.3154 26.9 14.3154C27.1242 14.3154 27.311 14.4044 27.4604 14.5825C27.6099 14.7606 27.6846 14.9684 27.6846 15.2058C27.6846 15.6609 27.4288 15.9712 26.9173 16.1366C26.4058 16.3019 25.8667 16.3846 25.3 16.3846C23.9538 16.3846 22.8032 15.9071 21.8481 14.952C20.893 13.9968 20.4154 12.8462 20.4154 11.5V11.0916C20.4154 10.9706 20.4449 10.8093 20.5038 10.6077C17.609 11.4539 15.2179 13.0923 13.3307 15.5231C11.4436 17.9539 10.5 20.7795 10.5 24C10.5 27.8667 11.8667 31.1667 14.6 33.9C17.3333 36.6333 20.6333 38 24.5 38Z" fill="#0A0C0D"/>
</svg>
