<svg width="49" height="48" viewBox="0 0 49 48" fill="none" xmlns="http://www.w3.org/2000/svg">
<path d="M17.3 32.6154L24.5 25.4154L31.7 32.6154L33.1154 31.2L25.9154 24L33.1154 16.8L31.7 15.3846L24.5 22.5846L17.3 15.3846L15.8846 16.8L23.0846 24L15.8846 31.2L17.3 32.6154ZM24.5067 42C22.0176 42 19.6774 41.5277 17.4862 40.583C15.295 39.6384 13.3889 38.3563 11.7679 36.737C10.147 35.1176 8.86383 33.2133 7.9183 31.0241C6.97277 28.8349 6.5 26.4958 6.5 24.0067C6.5 21.5176 6.97232 19.1774 7.91695 16.9862C8.86162 14.795 10.1437 12.8889 11.7631 11.268C13.3825 9.64705 15.2867 8.36383 17.4759 7.4183C19.6651 6.47277 22.0042 6 24.4933 6C26.9824 6 29.3226 6.47232 31.5138 7.41695C33.705 8.36162 35.6111 9.64365 37.232 11.263C38.853 12.8824 40.1362 14.7867 41.0817 16.9759C42.0272 19.1651 42.5 21.5042 42.5 23.9933C42.5 26.4824 42.0277 28.8226 41.083 31.0138C40.1384 33.205 38.8563 35.1111 37.237 36.732C35.6176 38.353 33.7133 39.6362 31.5241 40.5817C29.3349 41.5272 26.9958 42 24.5067 42ZM24.5 40C28.9667 40 32.75 38.45 35.85 35.35C38.95 32.25 40.5 28.4667 40.5 24C40.5 19.5333 38.95 15.75 35.85 12.65C32.75 9.55 28.9667 8 24.5 8C20.0333 8 16.25 9.55 13.15 12.65C10.05 15.75 8.5 19.5333 8.5 24C8.5 28.4667 10.05 32.25 13.15 35.35C16.25 38.45 20.0333 40 24.5 40Z" fill="#0A0C0D"/>
</svg>
