<svg width="49" height="48" viewBox="0 0 49 48" fill="none" xmlns="http://www.w3.org/2000/svg">
<path d="M12.5 29.0769H36.5V21.8077H20.8846V12H16.5C15.4 12 14.4583 12.418 13.675 13.2541C12.8917 14.0901 12.5 15.0952 12.5 16.2693V29.0769ZM24.5096 40C25.3494 40 26.1859 39.9263 27.0193 39.7789C27.8526 39.6314 28.6795 39.4359 29.5 39.1923V31.077H19.5V39.1923C20.3205 39.4359 21.1506 39.6314 21.9904 39.7789C22.8301 39.9263 23.6699 40 24.5096 40ZM24.5 42C22.1056 42 19.816 41.543 17.6311 40.6289C15.4463 39.7148 13.4808 38.4269 11.7346 36.7654L13.1616 35.3384C13.7898 35.9667 14.4686 36.5404 15.1981 37.0596C15.9275 37.5788 16.6949 38.0218 17.5 38.3884V31.077H10.5V16.2693C10.5 14.5308 11.0875 13.0513 12.2625 11.8307C13.4375 10.6102 14.85 10 16.5 10H22.8847V19.8077H38.5V31.077H31.5V38.3884C32.3051 38.0218 33.0725 37.5788 33.802 37.0596C34.5314 36.5404 35.2102 35.9667 35.8384 35.3384L37.2654 36.7654C35.5192 38.4269 33.5537 39.7148 31.3689 40.6289C29.184 41.543 26.8944 42 24.5 42Z" fill="#0A0C0D"/>
</svg>
