<svg width="24" height="24" viewBox="0 0 24 24" fill="none" xmlns="http://www.w3.org/2000/svg">
<path d="M11.5 20.5V18.5H9.5V17.5H11.5V14.4769C10.2218 14.3333 9.15225 13.7875 8.29135 12.8394C7.43045 11.8913 7 10.7744 7 9.48845C7 8.10023 7.48622 6.92177 8.45865 5.95305C9.43108 4.98435 10.6115 4.5 12 4.5C13.3885 4.5 14.5689 4.98435 15.5414 5.95305C16.5138 6.92177 17 8.10023 17 9.48845C17 10.7744 16.5696 11.8913 15.7087 12.8394C14.8478 13.7875 13.7782 14.3333 12.5 14.4769V17.5H14.5V18.5H12.5V20.5H11.5ZM12.0031 13.5C13.1087 13.5 14.0513 13.1092 14.8308 12.3276C15.6103 11.5461 16 10.6025 16 9.4969C16 8.39128 15.6092 7.44872 14.8277 6.66922C14.0461 5.88974 13.1025 5.5 11.9969 5.5C10.8913 5.5 9.94873 5.89078 9.16923 6.67235C8.38974 7.4539 8 8.39748 8 9.5031C8 10.6087 8.39078 11.5513 9.17235 12.3308C9.9539 13.1103 10.8975 13.5 12.0031 13.5Z" fill="white"/>
</svg>
