<svg width="49" height="48" viewBox="0 0 49 48" fill="none" xmlns="http://www.w3.org/2000/svg">
<path d="M12.5 28C12.5 30.2974 13.1128 32.4071 14.3385 34.3289C15.5641 36.2507 17.2115 37.6923 19.2807 38.6539C19.0166 38.2564 18.8205 37.8436 18.6923 37.4154C18.5641 36.9872 18.5 36.5487 18.5 36.1C18.5 35.3154 18.6551 34.5718 18.9654 33.8693C19.2756 33.1667 19.7115 32.5346 20.2731 31.9731L24.5 27.8077L28.7654 31.9731C29.3269 32.5346 29.7564 33.1667 30.0539 33.8693C30.3513 34.5718 30.5 35.3154 30.5 36.1C30.5 36.5487 30.4359 36.9872 30.3077 37.4154C30.1795 37.8436 29.9834 38.2564 29.7193 38.6539C31.7885 37.6923 33.4359 36.2507 34.6616 34.3289C35.8872 32.4071 36.5 30.2974 36.5 28C36.5 26.3333 36.1917 24.7583 35.575 23.275C34.9583 21.7917 34.0667 20.4667 32.9 19.3C32.2333 19.7333 31.5333 20.0583 30.8 20.275C30.0667 20.4917 29.3167 20.6 28.55 20.6C26.4577 20.6 24.6532 19.9167 23.1365 18.55C21.6199 17.1833 20.7577 15.4744 20.55 13.4231C19.25 14.4974 18.1 15.6263 17.1 16.8096C16.1 17.9929 15.2583 19.2058 14.575 20.4481C13.8917 21.6904 13.375 22.9449 13.025 24.2116C12.675 25.4782 12.5 26.741 12.5 28ZM24.5 30.6L21.65 33.4C21.2833 33.7667 21 34.1833 20.8 34.65C20.6 35.1167 20.5 35.6 20.5 36.1C20.5 37.1667 20.8917 38.0833 21.675 38.85C22.4583 39.6167 23.4 40 24.5 40C25.6 40 26.5417 39.6167 27.325 38.85C28.1083 38.0833 28.5 37.1667 28.5 36.1C28.5 35.5667 28.4 35.075 28.2 34.625C28 34.175 27.7167 33.7667 27.35 33.4L24.5 30.6ZM22.5 9.5769V12.6C22.5 14.2974 23.084 15.7218 24.252 16.8731C25.4199 18.0244 26.8526 18.6 28.55 18.6C29.1756 18.6 29.7853 18.4942 30.3789 18.2827C30.9725 18.0711 31.5334 17.7666 32.0616 17.3692L32.923 16.6923C34.6718 17.9897 36.0385 19.6385 37.0231 21.6385C38.0077 23.6385 38.5 25.759 38.5 28C38.5 31.9026 37.1423 35.2116 34.427 37.927C31.7115 40.6423 28.4026 42 24.5 42C20.5974 42 17.2884 40.6423 14.5731 37.927C11.8577 35.2116 10.5 31.9026 10.5 28C10.5 24.5718 11.5763 21.2192 13.7288 17.9423C15.8814 14.6654 18.8051 11.8769 22.5 9.5769Z" fill="#0A0C0D"/>
</svg>
