<svg width="160" height="160" viewBox="0 0 160 160" fill="none" xmlns="http://www.w3.org/2000/svg">
<rect width="160" height="160" rx="80" fill="#0A0C0D"/>
<path d="M140.594 78.398C140.601 78.17 140.664 77.9615 140.784 77.7727C140.911 77.584 141.076 77.4358 141.279 77.3279C141.482 77.2201 141.716 77.1702 141.979 77.1783C142.243 77.1865 142.473 77.2506 142.669 77.3708C142.865 77.491 143.017 77.649 143.125 77.845C143.24 78.0411 143.294 78.2532 143.287 78.4812C143.28 78.7092 143.213 78.914 143.086 79.0955C142.966 79.2844 142.805 79.4327 142.602 79.5406C142.399 79.6556 142.165 79.709 141.902 79.7008C141.638 79.6927 141.408 79.625 141.212 79.4977C141.016 79.3775 140.861 79.2193 140.746 79.0232C140.637 78.8344 140.587 78.626 140.594 78.398Z" fill="white"/>
<path d="M19.3859 80.7496C19.4017 80.9772 19.3594 81.191 19.259 81.3909C19.1514 81.5913 19.0021 81.7554 18.8108 81.883C18.6196 82.0106 18.3924 82.0836 18.1293 82.1019C17.8662 82.1202 17.6311 82.0794 17.424 81.9795C17.217 81.8795 17.0499 81.7375 16.9227 81.5534C16.7885 81.3698 16.7134 81.1642 16.6976 80.9366C16.6818 80.709 16.7279 80.4986 16.8359 80.3052C16.9364 80.1053 17.0822 79.9415 17.2734 79.8139C17.4641 79.6791 17.6911 79.6026 17.9542 79.5843C18.2173 79.566 18.4527 79.6104 18.6602 79.7174C18.8673 79.8174 19.0379 79.9591 19.1722 80.1428C19.2988 80.3197 19.3701 80.522 19.3859 80.7496Z" fill="white"/>
<path d="M138.052 91.816L144.498 93.2766L144.057 95.2253C143.948 95.7043 143.79 96.1133 143.582 96.4525C143.38 96.7932 143.112 97.0358 142.775 97.1803C142.444 97.3329 142.036 97.3542 141.55 97.2442C141.084 97.1387 140.724 96.9467 140.47 96.6684C140.216 96.39 140.055 96.05 139.987 95.6484C139.925 95.2548 139.946 94.8251 140.052 94.3593L140.275 93.3751L137.824 92.8198L138.052 91.816ZM141.082 93.558L140.881 94.4437C140.764 94.9621 140.778 95.3689 140.925 95.6644C141.072 95.9598 141.356 96.155 141.776 96.2502C142.209 96.3483 142.537 96.2847 142.76 96.0594C142.984 95.8342 143.154 95.4624 143.272 94.944L143.464 94.0976L141.082 93.558Z" fill="white"/>
<path d="M136.772 97.1534L143.051 99.2175L142.376 101.269C142.236 101.697 142.052 102.062 141.826 102.363C141.604 102.672 141.326 102.882 140.992 102.992C140.659 103.102 140.265 103.082 139.811 102.933C139.377 102.79 139.051 102.573 138.835 102.283C138.619 101.992 138.498 101.651 138.47 101.26C138.441 100.875 138.497 100.468 138.638 100.04L138.991 98.9664L136.45 98.1313L136.772 97.1534ZM135.643 100.585L138.969 99.9366L139.276 100.845L135.281 101.688L135.643 100.585ZM139.777 99.2248L139.462 100.183C139.31 100.644 139.288 101.022 139.396 101.32C139.508 101.626 139.752 101.841 140.13 101.965C140.513 102.091 140.821 102.057 141.055 101.865C141.286 101.679 141.477 101.356 141.628 100.896L141.943 99.937L139.777 99.2248Z" fill="white"/>
<path d="M133.705 104.971C133.938 104.456 134.27 104.06 134.699 103.782C135.134 103.507 135.639 103.363 136.214 103.351C136.786 103.344 137.393 103.487 138.036 103.779C138.686 104.074 139.19 104.436 139.549 104.865C139.912 105.303 140.127 105.774 140.194 106.277C140.261 106.78 140.177 107.289 139.944 107.804C139.71 108.318 139.382 108.716 138.959 108.997C138.536 109.278 138.041 109.423 137.476 109.432C136.913 109.45 136.307 109.311 135.658 109.017C135.015 108.724 134.509 108.358 134.14 107.917C133.769 107.483 133.543 107.011 133.464 106.502C133.391 105.996 133.471 105.485 133.705 104.971ZM134.523 105.342C134.37 105.679 134.332 106.013 134.411 106.344C134.487 106.682 134.669 106.997 134.957 107.291C135.245 107.584 135.625 107.838 136.096 108.052C136.568 108.266 137.003 108.382 137.401 108.4C137.805 108.421 138.156 108.348 138.454 108.18C138.749 108.019 138.973 107.769 139.126 107.433C139.279 107.096 139.321 106.76 139.251 106.425C139.178 106.097 139.001 105.787 138.719 105.497C138.444 105.209 138.07 104.958 137.598 104.744C137.127 104.53 136.686 104.411 136.275 104.387C135.865 104.363 135.509 104.431 135.208 104.59C134.904 104.754 134.676 105.005 134.523 105.342Z" fill="white"/>
<path d="M131.096 110.268L136.029 113.207L137.026 111.534L137.771 111.978L135.251 116.209L134.506 115.765L135.502 114.091L130.569 111.153L131.096 110.268Z" fill="white"/>
<path d="M128.829 113.886L134.16 117.794L131.851 120.944L131.151 120.431L132.852 118.111L131.354 117.013L129.916 118.975L129.216 118.462L130.654 116.5L128.921 115.229L127.161 117.63L126.461 117.117L128.829 113.886Z" fill="white"/>
<path d="M123.798 120.01C124.165 119.598 124.594 119.313 125.085 119.156C125.581 119.003 126.108 118.998 126.664 119.142C127.216 119.291 127.761 119.605 128.299 120.084C128.701 120.441 129.011 120.817 129.229 121.209C129.443 121.606 129.571 122.004 129.613 122.402C129.656 122.809 129.614 123.2 129.488 123.574C129.362 123.948 129.161 124.291 128.883 124.603C128.61 124.909 128.306 125.125 127.97 125.249C127.639 125.378 127.324 125.444 127.024 125.447L126.895 124.59C127.143 124.585 127.379 124.538 127.602 124.449C127.821 124.364 128.02 124.222 128.199 124.021C128.454 123.734 128.604 123.413 128.65 123.058C128.692 122.708 128.628 122.345 128.458 121.969C128.284 121.597 128.004 121.24 127.617 120.895C127.225 120.546 126.834 120.302 126.445 120.163C126.061 120.028 125.694 119.999 125.346 120.077C125.003 120.159 124.702 120.345 124.442 120.637C124.241 120.863 124.11 121.107 124.049 121.367C123.983 121.633 123.966 121.911 123.997 122.2L123.146 122.185C123.094 121.788 123.12 121.405 123.222 121.037C123.32 120.674 123.512 120.331 123.798 120.01Z" fill="white"/>
<path d="M120.731 123.31L124.641 127.515L126.067 126.189L126.658 126.825L123.052 130.178L122.461 129.542L123.887 128.216L119.977 124.011L120.731 123.31Z" fill="white"/>
<path d="M117.545 126.142L121.568 131.387L118.47 133.764L117.942 133.075L120.223 131.325L119.093 129.851L117.164 131.332L116.635 130.643L118.565 129.163L117.256 127.458L114.895 129.27L114.366 128.581L117.545 126.142Z" fill="white"/>
<path d="M113.108 129.447L116.574 135.075L115.113 135.975C114.541 136.328 113.988 136.522 113.457 136.557C112.92 136.595 112.416 136.471 111.947 136.183C111.481 135.901 111.061 135.456 110.687 134.849C110.313 134.242 110.102 133.661 110.052 133.107C110.003 132.552 110.109 132.045 110.371 131.583C110.632 131.122 111.043 130.719 111.605 130.373L113.108 129.447ZM112.671 130.7L112.147 131.023C111.74 131.273 111.449 131.563 111.272 131.893C111.096 132.223 111.032 132.587 111.079 132.984C111.13 133.387 111.3 133.824 111.589 134.294C111.879 134.763 112.188 135.106 112.518 135.321C112.852 135.542 113.202 135.643 113.569 135.622C113.939 135.608 114.328 135.475 114.734 135.225L115.259 134.902L112.671 130.7Z" fill="white"/>
<path d="M103.707 134.386C104.12 134.206 104.546 134.116 104.986 134.115C105.426 134.113 105.849 134.19 106.253 134.344L105.977 135.224C105.667 135.102 105.342 135.038 105.002 135.033C104.661 135.027 104.343 135.089 104.047 135.218C103.677 135.379 103.427 135.58 103.297 135.82C103.17 136.067 103.164 136.322 103.28 136.588C103.36 136.773 103.468 136.902 103.603 136.975C103.731 137.051 103.887 137.097 104.07 137.112C104.247 137.131 104.448 137.138 104.675 137.135L105.678 137.138C105.91 137.132 106.151 137.155 106.402 137.207C106.646 137.262 106.874 137.365 107.086 137.514C107.298 137.664 107.469 137.887 107.598 138.183C107.738 138.504 107.775 138.825 107.71 139.147C107.648 139.475 107.499 139.775 107.265 140.045C107.034 140.323 106.727 140.545 106.345 140.711C105.987 140.867 105.62 140.943 105.244 140.938C104.864 140.943 104.51 140.88 104.182 140.752L104.41 139.937C104.668 140.022 104.928 140.063 105.19 140.059C105.455 140.061 105.72 140.004 105.986 139.888C106.294 139.754 106.513 139.574 106.642 139.349C106.768 139.132 106.777 138.901 106.669 138.654C106.594 138.481 106.486 138.36 106.345 138.289C106.204 138.218 106.04 138.18 105.854 138.173C105.667 138.166 105.478 138.161 105.285 138.157L104.3 138.168C104.016 138.175 103.751 138.147 103.504 138.086C103.257 138.025 103.037 137.915 102.843 137.758C102.644 137.603 102.479 137.377 102.35 137.081C102.207 136.754 102.163 136.418 102.218 136.071C102.268 135.733 102.419 135.414 102.67 135.114C102.923 134.82 103.269 134.577 103.707 134.386Z" fill="white"/>
<path d="M100.307 135.886L102.348 142.173L98.633 143.378L98.3651 142.553L101.101 141.665L100.528 139.899L98.2143 140.649L97.9464 139.824L100.26 139.073L99.5961 137.029L96.7646 137.948L96.4967 137.122L100.307 135.886Z" fill="white"/>
<path d="M95.1815 137.477L96.5684 143.94L95.5324 144.162L92.562 140.805L91.589 139.59L91.5496 139.598C91.6399 139.923 91.7417 140.269 91.855 140.637C91.9684 141.005 92.0625 141.363 92.1373 141.712L92.7894 144.751L91.8323 144.956L90.4455 138.493L91.4815 138.271L94.454 141.638L95.4248 142.843L95.4643 142.835C95.3674 142.512 95.267 142.172 95.1631 141.816C95.0525 141.461 94.9592 141.106 94.8829 140.751L94.2245 137.682L95.1815 137.477Z" fill="white"/>
<path d="M86.8852 138.807C87.3333 138.759 87.7674 138.8 88.1876 138.93C88.6077 139.06 88.9879 139.259 89.3282 139.527L88.8013 140.284C88.5418 140.076 88.2506 139.918 87.9278 139.811C87.6049 139.704 87.2829 139.667 86.9619 139.702C86.5606 139.746 86.2619 139.863 86.066 140.053C85.8709 140.25 85.7888 140.492 85.82 140.78C85.8418 140.981 85.906 141.136 86.0126 141.246C86.1126 141.357 86.2476 141.448 86.4176 141.517C86.5808 141.588 86.7708 141.655 86.9876 141.719L87.944 142.022C88.1675 142.085 88.3909 142.18 88.6141 142.304C88.8307 142.43 89.0179 142.596 89.1756 142.802C89.3332 143.008 89.4295 143.272 89.4643 143.593C89.502 143.941 89.4417 144.258 89.2834 144.546C89.1258 144.841 88.8949 145.082 88.5905 145.271C88.2868 145.466 87.9277 145.586 87.513 145.631C87.1251 145.673 86.7522 145.636 86.3944 145.519C86.0307 145.41 85.7117 145.244 85.4374 145.024L85.8984 144.314C86.1187 144.473 86.3546 144.589 86.6063 144.664C86.8586 144.745 87.1286 144.77 87.4162 144.738C87.7506 144.702 88.0132 144.596 88.2039 144.42C88.3886 144.251 88.4664 144.032 88.4374 143.765C88.4171 143.578 88.3503 143.429 88.2369 143.32C88.1236 143.21 87.9789 143.124 87.803 143.062C87.6271 143 87.4479 142.938 87.2653 142.877L86.321 142.593C86.0486 142.515 85.8037 142.409 85.5864 142.277C85.3691 142.145 85.1916 141.975 85.054 141.766C84.9097 141.559 84.8201 141.294 84.7853 140.973C84.7469 140.619 84.8054 140.284 84.9608 139.97C85.1102 139.663 85.3494 139.403 85.6783 139.192C86.008 138.987 86.4103 138.859 86.8852 138.807Z" fill="white"/>
<path d="M83.079 139.212L83.3086 145.818L82.2799 145.854L82.0504 139.248L83.079 139.212Z" fill="white"/>
<path d="M78.4674 139.225L78.2238 144.962L80.1696 145.045L80.1328 145.912L75.2127 145.703L75.2495 144.836L77.1954 144.919L77.4391 139.182L78.4674 139.225Z" fill="white"/>
<path d="M74.1044 138.906L73.3418 145.472L72.3194 145.353L73.0819 138.788L74.1044 138.906Z" fill="white"/>
<path d="M69.8692 138.282L70.6465 145.167L69.5767 144.959L69.2617 141.402C69.2227 141.004 69.1931 140.628 69.1728 140.275C69.1513 139.928 69.121 139.555 69.082 139.157L69.0424 139.149C68.8569 139.504 68.689 139.838 68.5389 140.151C68.3809 140.47 68.2124 140.807 68.0334 141.163L66.4169 144.344L65.3868 144.143L68.6806 138.051L69.8692 138.282Z" fill="white"/>
<path d="M65.6273 137.353L63.7539 143.691L60.0087 142.585L60.2547 141.752L63.0128 142.567L63.5391 140.787L61.2068 140.098L61.4527 139.265L63.785 139.955L64.3942 137.893L61.5394 137.049L61.7854 136.217L65.6273 137.353Z" fill="white"/>
<path d="M58.0097 134.739L55.4121 140.817L54.4656 140.413L57.0632 134.335L58.0097 134.739Z" fill="white"/>
<path d="M55.384 133.608L52.2988 139.454L51.3617 138.959L51.239 134.479L51.2732 132.922L51.2375 132.903C51.0984 133.21 50.9542 133.541 50.8049 133.896C50.6557 134.251 50.4979 134.586 50.3314 134.901L48.8807 137.65L48.015 137.193L51.1002 131.347L52.0373 131.842L52.1553 136.332L52.1258 137.879L52.1615 137.898C52.2947 137.588 52.4357 137.263 52.5847 136.923C52.7276 136.58 52.8839 136.248 53.0534 135.927L54.5183 133.151L55.384 133.608Z" fill="white"/>
<path d="M49.5158 130.345L45.8457 135.843L42.5893 133.669L43.0712 132.947L45.4715 134.549L46.5977 132.862L44.5583 131.501L45.0402 130.779L47.0796 132.14L48.6597 129.774L49.5158 130.345Z" fill="white"/>
<path d="M43.1154 125.502C43.5483 125.865 43.841 126.291 43.9936 126.779C44.1418 127.272 44.1447 127.797 44.0024 128.354C43.8549 128.906 43.5542 129.453 43.1001 129.994C42.6417 130.541 42.1576 130.929 41.6477 131.16C41.1284 131.392 40.6173 131.472 40.1145 131.401C39.6117 131.331 39.1438 131.114 38.7109 130.751C38.278 130.387 37.9832 129.964 37.8263 129.481C37.6695 128.998 37.6626 128.483 37.8058 127.936C37.9394 127.389 38.2354 126.843 38.6938 126.297C39.1479 125.756 39.6368 125.367 40.1604 125.13C40.679 124.889 41.1939 124.798 41.7054 124.859C42.2125 124.924 42.6825 125.139 43.1154 125.502ZM42.5381 126.19C42.2547 125.952 41.9428 125.826 41.6026 125.813C41.2573 125.796 40.9047 125.886 40.5448 126.085C40.1849 126.283 39.8385 126.581 39.5055 126.978C39.1725 127.375 38.9438 127.762 38.8193 128.141C38.6905 128.525 38.6669 128.883 38.7485 129.215C38.8249 129.542 39.0048 129.825 39.2883 130.063C39.5717 130.301 39.8839 130.431 40.225 130.453C40.5608 130.472 40.9066 130.384 41.2621 130.191C41.6133 130.003 41.9554 129.71 42.2884 129.313C42.6214 128.916 42.8545 128.523 42.9876 128.135C43.1207 127.746 43.1512 127.385 43.0791 127.052C43.0019 126.715 42.8216 126.428 42.5381 126.19Z" fill="white"/>
<path d="M39.8635 122.769L35.1055 127.357L33.6064 125.803C33.2935 125.478 33.0569 125.146 32.8966 124.805C32.7268 124.464 32.6711 124.121 32.7298 123.774C32.7884 123.428 32.9896 123.089 33.3335 122.758C33.6628 122.44 34.0063 122.254 34.3642 122.198C34.722 122.143 35.0803 122.195 35.439 122.353C35.7931 122.507 36.1265 122.747 36.4394 123.071L37.224 123.885L39.149 122.028L39.8635 122.769ZM37.3557 120.169L36.3761 123.412L35.4297 123.26L36.5502 119.333L37.3557 120.169ZM36.6283 124.459L35.9278 123.733C35.5916 123.384 35.2669 123.188 34.9536 123.144C34.6309 123.1 34.3267 123.216 34.041 123.491C33.7504 123.772 33.6357 124.06 33.697 124.356C33.7535 124.647 33.9499 124.967 34.2861 125.316L34.9866 126.042L36.6283 124.459Z" fill="white"/>
<path d="M36.0224 118.715L30.793 122.757L30.0647 121.815L31.9827 118.802C32.1078 118.612 32.2381 118.417 32.3739 118.219C32.5042 118.025 32.6346 117.83 32.765 117.636L32.7403 117.604C32.5194 117.681 32.3006 117.761 32.0838 117.844C31.8575 117.925 31.6366 118.002 31.4211 118.075L28.0341 119.189L27.3059 118.246L32.5353 114.204L33.1155 114.954L30.5127 116.966C30.353 117.09 30.1759 117.218 29.9814 117.352C29.7775 117.484 29.5735 117.616 29.3695 117.748C29.1656 117.88 28.9823 118.001 28.8197 118.109L28.8444 118.141L30.3709 117.624L33.5797 116.611L33.9685 117.114L32.1793 119.964L31.2947 121.311L31.3193 121.343C31.4655 121.213 31.6282 121.066 31.8074 120.902C31.9867 120.738 32.168 120.576 32.3514 120.417C32.5254 120.257 32.6922 120.116 32.8519 119.992L35.4546 117.98L36.0224 118.715Z" fill="white"/>
<path d="M32.1155 113.578L25.3332 115.155L24.7125 114.139L29.212 108.825L29.7801 109.755L27.2718 112.54C27.0213 112.827 26.7674 113.108 26.51 113.384C26.2468 113.663 25.9836 113.942 25.7204 114.221L25.7415 114.255C26.1063 114.143 26.4747 114.036 26.8466 113.935C27.2092 113.832 27.5736 113.731 27.9398 113.634L31.5685 112.683L32.1155 113.578ZM29.8633 113.511L29.1744 113.932L27.5701 111.306L28.2591 110.885L29.8633 113.511Z" fill="white"/>
<path d="M28.2172 106.772L23.0525 109.281L23.9036 111.033L23.123 111.412L20.971 106.983L21.7516 106.604L22.6027 108.355L27.7673 105.846L28.2172 106.772Z" fill="white"/>
<path d="M26.431 102.813L20.2871 105.251L19.9075 104.294L26.0514 101.857L26.431 102.813Z" fill="white"/>
<path d="M24.6621 97.3759C24.8223 97.9178 24.8311 98.4343 24.6887 98.9254C24.5397 99.4184 24.2521 99.8577 23.8259 100.243C23.3978 100.622 22.845 100.912 22.1676 101.112C21.4837 101.314 20.8655 101.371 20.313 101.281C19.7521 101.188 19.2816 100.972 18.9015 100.636C18.5214 100.299 18.2513 99.8599 18.0911 99.3179C17.9309 98.776 17.9189 98.2604 18.0549 97.7713C18.1909 97.2821 18.4698 96.8489 18.8915 96.4717C19.3048 96.09 19.8534 95.7981 20.5373 95.596C21.2147 95.3958 21.8371 95.3416 22.4044 95.4335C22.9698 95.5189 23.449 95.728 23.842 96.0609C24.2286 96.3956 24.502 96.8339 24.6621 97.3759ZM23.8008 97.6304C23.696 97.2756 23.5054 96.9987 23.2291 96.7997C22.9509 96.5943 22.607 96.475 22.1973 96.4417C21.7876 96.4085 21.3344 96.4653 20.8376 96.6121C20.3408 96.7589 19.936 96.9557 19.6231 97.2026C19.3037 97.4513 19.0864 97.7365 18.971 98.0582C18.8537 98.3735 18.8475 98.7085 18.9524 99.0634C19.0573 99.4182 19.2456 99.6993 19.5173 99.9066C19.7871 100.107 20.1237 100.225 20.5269 100.261C20.9237 100.298 21.3705 100.243 21.8673 100.096C22.364 99.9492 22.7753 99.7505 23.1011 99.4998C23.4269 99.2492 23.6517 98.9653 23.7754 98.6481C23.8972 98.3245 23.9057 97.9853 23.8008 97.6304Z" fill="white"/>
<path d="M23.4465 93.3249L16.9355 94.4638L16.753 93.4201L20.2208 90.5801L21.4726 89.6543L21.4657 89.6145C21.1378 89.6924 20.7879 89.7809 20.416 89.8801C20.044 89.9793 19.6824 90.0596 19.3312 90.1211L16.2696 90.6566L16.1009 89.6924L22.6119 88.5535L22.7944 89.5972L19.3166 92.4389L18.0748 93.363L18.0817 93.4028C18.4084 93.3183 18.7517 93.2309 19.1116 93.1407C19.4703 93.0438 19.8285 92.964 20.1864 92.9014L23.2778 92.3607L23.4465 93.3249Z" fill="white"/>
<path d="M22.9562 67.1778L16.5098 65.7172L16.9513 63.7685C17.0598 63.2895 17.218 62.8804 17.426 62.5412C17.6273 62.2006 17.8961 61.958 18.2324 61.8134C18.5636 61.6608 18.972 61.6395 19.4575 61.7495C19.9233 61.8551 20.2834 62.047 20.5376 62.3254C20.7919 62.6037 20.9528 62.9437 21.0205 63.3453C21.0831 63.7389 21.0616 64.1686 20.956 64.6345L20.733 65.6187L23.1836 66.1739L22.9562 67.1778ZM19.926 65.4358L20.1267 64.55C20.2441 64.0317 20.2294 63.6248 20.0825 63.3294C19.9356 63.034 19.6522 62.8387 19.2323 62.7436C18.7992 62.6454 18.4709 62.709 18.2474 62.9343C18.024 63.1596 17.8535 63.5314 17.736 64.0497L17.5443 64.8961L19.926 65.4358Z" fill="white"/>
<path d="M24.2363 61.8403L17.957 59.7762L18.6314 57.7247C18.7722 57.2965 18.9557 56.9319 19.1821 56.631C19.4042 56.3216 19.682 56.112 20.0156 56.0021C20.3491 55.8922 20.7428 55.9118 21.1966 56.061C21.6312 56.2038 21.9565 56.4205 22.1726 56.7111C22.3887 57.0017 22.5103 57.3426 22.5375 57.734C22.5667 58.1189 22.511 58.5255 22.3702 58.9537L22.0173 60.0274L24.5577 60.8625L24.2363 61.8403ZM25.3645 58.4083L22.0388 59.0572L21.7318 58.149L25.7269 57.3058L25.3645 58.4083ZM21.2312 59.769L21.5463 58.8103C21.6975 58.3502 21.7194 57.9714 21.6118 57.674C21.4999 57.3681 21.2554 57.1532 20.8783 57.0292C20.4948 56.9032 20.1865 56.9364 19.9533 57.1288C19.7221 57.3149 19.531 57.638 19.3797 58.0981L19.0646 59.0568L21.2312 59.769Z" fill="white"/>
<path d="M27.303 54.0228C27.0694 54.5374 26.738 54.9337 26.3088 55.2117C25.8735 55.4869 25.3686 55.6307 24.794 55.6432C24.2222 55.6495 23.6147 55.5067 22.9715 55.2146C22.3222 54.9198 21.8179 54.5578 21.4586 54.1286C21.096 53.6906 20.8811 53.2199 20.8141 52.7166C20.7471 52.2133 20.8305 51.7044 21.0641 51.1898C21.2978 50.6753 21.6261 50.2776 22.0492 49.9968C22.4722 49.7161 22.9666 49.5711 23.5322 49.562C24.0946 49.544 24.7004 49.6824 25.3497 49.9772C25.9929 50.2693 26.4989 50.6357 26.8676 51.0765C27.2392 51.5112 27.4646 51.983 27.5438 52.4919C27.6169 52.998 27.5367 53.5083 27.303 54.0228ZM26.4853 53.6515C26.6383 53.3146 26.6754 52.9805 26.5968 52.6493C26.5209 52.3119 26.339 51.9965 26.0511 51.7032C25.7631 51.4099 25.3833 51.1562 24.9116 50.942C24.44 50.7278 24.0051 50.6116 23.607 50.5934C23.2027 50.5724 22.8517 50.6457 22.5539 50.8134C22.2589 50.975 22.0349 51.2243 21.8819 51.5612C21.7289 51.8981 21.6873 52.2338 21.757 52.5684C21.8295 52.8969 22.0067 53.2064 22.2885 53.4969C22.5642 53.7847 22.9379 54.0356 23.4096 54.2498C23.8813 54.464 24.3223 54.583 24.7326 54.6068C25.143 54.6305 25.4987 54.563 25.7999 54.4042C26.1038 54.2393 26.3323 53.9884 26.4853 53.6515Z" fill="white"/>
<path d="M29.9117 48.7254L24.9787 45.7867L23.9819 47.46L23.2363 47.0158L25.7567 42.785L26.5022 43.2292L25.5055 44.9024L30.4385 47.8411L29.9117 48.7254Z" fill="white"/>
<path d="M32.1767 45.1075L26.8457 41.1998L29.1545 38.05L29.8545 38.5631L28.1542 40.8827L29.6517 41.9805L31.0895 40.019L31.7895 40.532L30.3517 42.4935L32.0853 43.7643L33.8452 41.3633L34.5452 41.8764L32.1767 45.1075Z" fill="white"/>
<path d="M37.2094 38.9841C36.8427 39.3962 36.4137 39.6808 35.9225 39.8381C35.4263 39.9909 34.9 39.9953 34.3437 39.8514C33.7918 39.7024 33.247 39.3887 32.7092 38.9101C32.3072 38.5523 31.9971 38.1772 31.7788 37.7849C31.5651 37.3875 31.4371 36.9899 31.3949 36.5921C31.3521 36.1848 31.3937 35.794 31.5197 35.4198C31.6456 35.0455 31.8472 34.7026 32.1245 34.391C32.3973 34.0845 32.7017 33.869 33.0375 33.7446C33.3684 33.6158 33.6838 33.5497 33.9838 33.5466L34.1123 34.404C33.8648 34.4088 33.6293 34.4559 33.4058 34.5452C33.1867 34.6294 32.9877 34.772 32.8088 34.973C32.5539 35.2595 32.4034 35.5804 32.3574 35.9357C32.3158 36.286 32.3799 36.6491 32.5495 37.0252C32.7236 37.3963 33.0041 37.7541 33.391 38.0984C33.783 38.4473 34.1737 38.6914 34.563 38.8308C34.9473 38.9657 35.3135 38.9944 35.6616 38.9169C36.0047 38.835 36.306 38.6483 36.5654 38.3568C36.7666 38.1307 36.8978 37.8872 36.9589 37.6263C37.0244 37.3604 37.0416 37.083 37.0105 36.7942L37.8619 36.8089C37.9136 37.2062 37.8883 37.5889 37.7858 37.957C37.6878 38.3201 37.4957 38.6624 37.2094 38.9841Z" fill="white"/>
<path d="M40.2749 35.6835L36.3649 31.4785L34.9386 32.8048L34.3477 32.1692L37.9541 28.8158L38.545 29.4514L37.1187 30.7776L41.0287 34.9826L40.2749 35.6835Z" fill="white"/>
<path d="M43.4629 32.8513L39.4395 27.6071L42.5379 25.2299L43.0662 25.9185L40.7844 27.6691L41.9146 29.1423L43.8442 27.6619L44.3724 28.3505L42.4429 29.8309L43.7513 31.5362L46.1132 29.7241L46.6415 30.4126L43.4629 32.8513Z" fill="white"/>
<path d="M47.8996 29.5466L44.4336 23.9184L45.8944 23.0188C46.4672 22.666 47.0194 22.4721 47.5509 22.4372C48.0881 22.3986 48.5915 22.5232 49.061 22.8109C49.5269 23.0928 49.9469 23.5374 50.3208 24.1446C50.6947 24.7518 50.9063 25.3326 50.9554 25.887C51.0045 26.4415 50.8984 26.9492 50.6372 27.4103C50.376 27.8714 49.9647 28.2748 49.4033 28.6206L47.8996 29.5466ZM48.3368 28.2936L48.861 27.9709C49.2677 27.7204 49.5592 27.4303 49.7353 27.1006C49.9115 26.7708 49.976 26.4072 49.9287 26.0097C49.8779 25.6064 49.7078 25.1699 49.4186 24.7002C49.1293 24.2305 48.8196 23.8879 48.4894 23.6725C48.1557 23.4513 47.8055 23.3509 47.4388 23.3713C47.0686 23.386 46.6801 23.5186 46.2734 23.769L45.7492 24.0918L48.3368 28.2936Z" fill="white"/>
<path d="M57.3011 24.6073C56.888 24.7875 56.4614 24.8782 56.0215 24.8793C55.5816 24.8803 55.1593 24.804 54.7546 24.6502L55.0311 23.7699C55.3411 23.8916 55.6662 23.9553 56.0063 23.9611C56.3464 23.9668 56.6645 23.9052 56.9605 23.776C57.3305 23.6146 57.5805 23.4138 57.7106 23.1736C57.838 22.9272 57.8438 22.6714 57.7282 22.4063C57.6475 22.2213 57.5397 22.0921 57.405 22.0188C57.2764 21.9427 57.1206 21.8969 56.9377 21.8813C56.7609 21.863 56.5594 21.8555 56.3333 21.8587L55.3302 21.8559C55.0979 21.8618 54.8566 21.8386 54.6062 21.7864C54.3621 21.7314 54.1339 21.6291 53.9218 21.4794C53.7097 21.3297 53.5391 21.1069 53.41 20.8109C53.2701 20.4902 53.2327 20.1689 53.2978 19.8469C53.3602 19.5188 53.5084 19.2193 53.7425 18.9483C53.974 18.6712 54.2808 18.4493 54.6631 18.2825C55.0208 18.1265 55.3878 18.0508 55.7642 18.0554C56.144 18.0512 56.4977 18.1134 56.8254 18.242L56.5975 19.0571C56.3398 18.9713 56.0799 18.9306 55.8175 18.9349C55.5525 18.9331 55.2874 18.99 55.0223 19.1057C54.7139 19.2402 54.4951 19.42 54.3658 19.6453C54.24 19.8616 54.2309 20.0931 54.3385 20.3398C54.4138 20.5124 54.522 20.6341 54.6629 20.7047C54.8038 20.7754 54.9675 20.8141 55.1539 20.8208C55.3403 20.8276 55.5299 20.833 55.7225 20.837L56.7082 20.8254C56.9918 20.8191 57.257 20.8466 57.5038 20.9077C57.7507 20.9688 57.9709 21.0783 58.1645 21.236C58.3643 21.3911 58.5287 21.6166 58.6578 21.9126C58.8004 22.2394 58.8445 22.5762 58.7902 22.9228C58.7394 23.2606 58.5886 23.5796 58.3379 23.8798C58.0845 24.1738 57.7389 24.4163 57.3011 24.6073Z" fill="white"/>
<path d="M60.7005 23.1082L58.6602 16.8212L62.3748 15.6156L62.6427 16.4411L59.9071 17.3289L60.4803 19.095L62.7935 18.3443L63.0614 19.1697L60.7482 19.9205L61.4117 21.965L64.2433 21.046L64.5112 21.8715L60.7005 23.1082Z" fill="white"/>
<path d="M65.8263 21.5167L64.4395 15.054L65.4755 14.8317L68.4458 18.1886L69.4188 19.4041L69.4582 19.3956C69.3679 19.071 69.2661 18.7247 69.1528 18.3568C69.0394 17.989 68.9453 17.6307 68.8705 17.2821L68.2184 14.2431L69.1755 14.0377L70.5623 20.5004L69.5263 20.7228L66.5538 17.356L65.583 16.1504L65.5435 16.1589C65.6404 16.4821 65.7408 16.8218 65.8448 17.1779C65.9553 17.5327 66.0486 17.8876 66.1249 18.2428L66.7833 21.3114L65.8263 21.5167Z" fill="white"/>
<path d="M74.1226 20.1866C73.6745 20.2352 73.2404 20.1942 72.8202 20.0638C72.4001 19.9334 72.0199 19.7344 71.6796 19.4668L72.2065 18.7093C72.466 18.918 72.7572 19.0759 73.0801 19.183C73.4029 19.2902 73.7249 19.3263 74.046 19.2915C74.4473 19.248 74.7459 19.1311 74.9418 18.9407C75.137 18.7436 75.219 18.5013 75.1878 18.2137C75.1661 18.013 75.1018 17.8576 74.9952 17.7473C74.8952 17.6363 74.7602 17.5461 74.5903 17.4765C74.427 17.4063 74.237 17.3389 74.0202 17.2744L73.0638 16.972C72.8403 16.9083 72.617 16.814 72.3937 16.6894C72.1771 16.564 71.9899 16.3982 71.8323 16.1919C71.6746 15.9857 71.5783 15.7221 71.5435 15.401C71.5059 15.0532 71.5662 14.7354 71.7244 14.4476C71.882 14.1531 72.113 13.9115 72.4173 13.7229C72.721 13.5276 73.0801 13.4074 73.4948 13.3625C73.8828 13.3205 74.2556 13.3579 74.6134 13.4748C74.9771 13.5842 75.2961 13.7493 75.5704 13.9699L75.1094 14.6797C74.8891 14.5208 74.6532 14.4043 74.4016 14.3301C74.1492 14.2491 73.8792 14.2243 73.5916 14.2554C73.2572 14.2917 72.9946 14.3979 72.8039 14.5742C72.6192 14.7431 72.5414 14.9613 72.5704 15.2289C72.5907 15.4161 72.6575 15.5645 72.7709 15.6741C72.8842 15.7836 73.0289 15.8694 73.2048 15.9315C73.3807 15.9937 73.5599 16.0555 73.7425 16.1169L74.6868 16.4003C74.9592 16.479 75.2041 16.5844 75.4214 16.7165C75.6388 16.8486 75.8162 17.0189 75.9539 17.2273C76.0982 17.4349 76.1877 17.6993 76.2225 18.0203C76.2609 18.3748 76.2024 18.7094 76.047 19.0239C75.8976 19.3311 75.6584 19.5905 75.3295 19.8021C74.9998 20.007 74.5975 20.1352 74.1226 20.1866Z" fill="white"/>
<path d="M77.9288 19.7814L77.6992 13.1756L78.7279 13.1398L78.9575 19.7457L77.9288 19.7814Z" fill="white"/>
<path d="M82.5404 19.7683L82.784 14.0315L80.8382 13.9488L80.875 13.0818L85.7951 13.2907L85.7583 14.1578L83.8124 14.0752L83.5688 19.812L82.5404 19.7683Z" fill="white"/>
<path d="M86.9034 20.0874L87.666 13.5217L88.6885 13.6405L87.9259 20.2062L86.9034 20.0874Z" fill="white"/>
<path d="M91.1386 20.7117L90.3613 13.8264L91.4311 14.0347L91.7461 17.5915C91.7851 17.9898 91.8147 18.3657 91.835 18.7191C91.8565 19.066 91.8868 19.4386 91.9258 19.8369L91.9654 19.8446C92.151 19.49 92.3188 19.156 92.4689 18.8426C92.6269 18.5238 92.7954 18.1865 92.9744 17.8307L94.5909 14.6499L95.6211 14.8505L92.3273 20.9431L91.1386 20.7117Z" fill="white"/>
<path d="M95.3805 21.641L97.2539 15.3023L100.999 16.4092L100.753 17.2414L97.995 16.4263L97.4688 18.2069L99.801 18.8963L99.5551 19.7285L97.2228 19.0392L96.6136 21.1005L99.4684 21.9443L99.2225 22.7765L95.3805 21.641Z" fill="white"/>
<path d="M102.996 24.2547L105.594 18.1767L106.54 18.5812L103.943 24.6592L102.996 24.2547Z" fill="white"/>
<path d="M105.622 25.3854L108.707 19.5397L109.644 20.0343L109.767 24.515L109.733 26.0716L109.768 26.0904C109.907 25.7835 110.052 25.4526 110.201 25.0978C110.35 24.7429 110.508 24.4079 110.674 24.0925L112.125 21.3437L112.991 21.8006L109.906 27.6463L108.969 27.1517L108.851 22.6621L108.88 21.1144L108.844 21.0956C108.711 21.4056 108.57 21.7306 108.421 22.0704C108.278 22.4133 108.122 22.7454 107.952 23.0667L106.488 25.8423L105.622 25.3854Z" fill="white"/>
<path d="M111.492 28.6485L115.162 23.1512L118.419 25.3253L117.937 26.047L115.536 24.4445L114.41 26.1315L116.45 27.4931L115.968 28.2148L113.928 26.8533L112.348 29.2201L111.492 28.6485Z" fill="white"/>
<path d="M117.892 33.492C117.459 33.1287 117.167 32.703 117.014 32.215C116.866 31.7218 116.863 31.1967 117.005 30.6399C117.153 30.0874 117.454 29.5406 117.908 28.9995C118.366 28.4532 118.85 28.0647 119.36 27.8338C119.879 27.6022 120.391 27.5216 120.893 27.5923C121.396 27.6629 121.864 27.8798 122.297 28.2431C122.73 28.6064 123.025 29.0294 123.181 29.5123C123.338 29.9953 123.345 30.5104 123.202 31.0577C123.068 31.6043 122.772 32.1507 122.314 32.6969C121.86 33.238 121.371 33.627 120.847 33.8638C120.329 34.105 119.814 34.1954 119.302 34.1351C118.795 34.0696 118.325 33.8552 117.892 33.492ZM118.47 32.804C118.753 33.0418 119.065 33.1673 119.405 33.1806C119.751 33.1981 120.103 33.1076 120.463 32.909C120.823 32.7104 121.169 32.4126 121.502 32.0158C121.835 31.619 122.064 31.2313 122.188 30.8527C122.317 30.469 122.341 30.1112 122.259 29.7792C122.183 29.4517 122.003 29.1689 121.72 28.9311C121.436 28.6932 121.124 28.563 120.783 28.5403C120.447 28.5219 120.101 28.6094 119.746 28.8029C119.394 28.9912 119.052 29.2838 118.719 29.6806C118.386 30.0774 118.153 30.4703 118.02 30.8592C117.887 31.248 117.857 31.6089 117.929 31.9416C118.006 32.2787 118.186 32.5661 118.47 32.804Z" fill="white"/>
<path d="M121.142 36.2245L125.9 31.6363L127.399 33.1908C127.712 33.5153 127.949 33.8479 128.109 34.1886C128.279 34.5295 128.335 34.8731 128.276 35.2194C128.217 35.5656 128.016 35.9045 127.672 36.2361C127.343 36.5536 127 36.7401 126.642 36.7954C126.284 36.8508 125.926 36.7991 125.567 36.6403C125.213 36.4864 124.879 36.2472 124.566 35.9227L123.782 35.1092L121.857 36.9654L121.142 36.2245ZM123.65 38.825L124.63 35.5813L125.576 35.7341L124.456 39.6604L123.65 38.825ZM124.378 34.5348L125.078 35.2612C125.414 35.6098 125.739 35.8061 126.052 35.8498C126.375 35.8937 126.679 35.7779 126.965 35.5024C127.255 35.2222 127.37 34.9341 127.309 34.638C127.252 34.3467 127.056 34.0267 126.72 33.6781L126.019 32.9517L124.378 34.5348Z" fill="white"/>
<path d="M124.985 40.2789L130.215 36.2364L130.943 37.1785L129.025 40.1918C128.9 40.382 128.77 40.5763 128.634 40.7748C128.504 40.9691 128.373 41.1634 128.243 41.3577L128.267 41.3897C128.488 41.3125 128.707 41.2326 128.924 41.15C129.15 41.0687 129.371 40.9914 129.587 40.9183L132.974 39.8052L133.702 40.7473L128.473 44.7899L127.892 44.0394L130.495 42.0273C130.655 41.9039 130.832 41.7755 131.026 41.6421C131.23 41.51 131.434 41.3778 131.638 41.2457C131.842 41.1135 132.025 40.9931 132.188 40.8844L132.163 40.8525L130.637 41.3693L127.428 42.3829L127.039 41.8799L128.829 39.03L129.713 37.6829L129.688 37.6509C129.542 37.7809 129.38 37.9279 129.2 38.092C129.021 38.2561 128.84 38.4175 128.656 38.5763C128.482 38.7363 128.316 38.878 128.156 39.0014L125.553 41.0135L124.985 40.2789Z" fill="white"/>
<path d="M128.892 45.4153L135.675 43.8389L136.295 44.8551L131.796 50.1692L131.228 49.2391L133.736 46.4536C133.986 46.1667 134.24 45.8855 134.498 45.61C134.761 45.331 135.024 45.052 135.287 44.773L135.266 44.7386C134.901 44.8511 134.533 44.9578 134.161 45.0588C133.799 45.162 133.434 45.2624 133.068 45.3599L129.439 46.311L128.892 45.4153ZM131.144 45.4824L131.833 45.0616L133.438 47.6883L132.749 48.109L131.144 45.4824Z" fill="white"/>
<path d="M132.791 52.2219L137.955 49.7126L137.104 47.9608L137.885 47.5815L140.037 52.011L139.256 52.3902L138.405 50.6384L133.24 53.1477L132.791 52.2219Z" fill="white"/>
<path d="M134.577 56.1803L140.721 53.7426L141.1 54.6994L134.956 57.137L134.577 56.1803Z" fill="white"/>
<path d="M136.346 61.6179C136.186 61.0759 136.177 60.5594 136.319 60.0683C136.468 59.5754 136.756 59.1361 137.182 58.7506C137.61 58.3715 138.163 58.0818 138.84 57.8816C139.524 57.6795 140.142 57.6231 140.695 57.7123C141.256 57.8061 141.726 58.0213 142.106 58.358C142.486 58.6946 142.757 59.1339 142.917 59.6758C143.077 60.2178 143.089 60.7333 142.953 61.2225C142.817 61.7117 142.538 62.1449 142.116 62.522C141.703 62.9038 141.154 63.1957 140.471 63.3978C139.793 63.598 139.171 63.6522 138.603 63.5603C138.038 63.4748 137.559 63.2657 137.166 62.9329C136.779 62.5982 136.506 62.1598 136.346 61.6179ZM137.207 61.3633C137.312 61.7182 137.502 61.9951 137.779 62.194C138.057 62.3994 138.401 62.5188 138.811 62.552C139.22 62.5853 139.673 62.5285 140.17 62.3817C140.667 62.2348 141.072 62.038 141.385 61.7912C141.704 61.5425 141.921 61.2573 142.037 60.9355C142.154 60.6203 142.16 60.2852 142.055 59.9304C141.951 59.5755 141.762 59.2945 141.491 59.0871C141.221 58.8863 140.884 58.7683 140.481 58.7331C140.084 58.696 139.637 58.7509 139.141 58.8977C138.644 59.0446 138.232 59.2433 137.907 59.4939C137.581 59.7445 137.356 60.0284 137.232 60.3456C137.111 60.6693 137.102 61.0085 137.207 61.3633Z" fill="white"/>
<path d="M137.561 65.6689L144.072 64.53L144.255 65.5737L140.787 68.4136L139.535 69.3395L139.542 69.3792C139.87 69.3014 140.22 69.2129 140.592 69.1137C140.964 69.0144 141.325 68.9341 141.677 68.8727L144.738 68.3371L144.907 69.3013L138.396 70.4403L138.213 69.3965L141.691 66.5549L142.933 65.6308L142.926 65.591C142.599 65.6755 142.256 65.7628 141.896 65.8531C141.538 65.95 141.179 66.0297 140.821 66.0923L137.73 66.6331L137.561 65.6689Z" fill="white"/>
<path d="M80.5025 88.2696C83.7716 85.3015 85.8608 83.2342 86.7698 82.0677C87.6789 80.9012 88.1335 79.7321 88.1335 78.5605C88.1335 77.4204 87.7181 76.4387 86.8875 75.6153C86.0568 74.7919 85.0663 74.3802 83.9161 74.3802C83.2147 74.3802 82.563 74.5146 81.961 74.7832C81.3591 75.0519 80.8729 75.4233 80.5025 75.8974C80.1232 75.4233 79.6333 75.0519 79.0327 74.7832C78.4321 74.5146 77.7842 74.3802 77.0888 74.3802C75.9509 74.3802 74.9636 74.7911 74.1267 75.6129C73.2899 76.4347 72.8714 77.4167 72.8714 78.5587C72.8714 79.1615 72.9522 79.7167 73.1136 80.2243C73.2751 80.7318 73.6303 81.3266 74.1793 82.0087C74.7282 82.6907 75.5005 83.5238 76.4962 84.5079C77.4918 85.492 78.8272 86.7459 80.5025 88.2696ZM80.5025 101.545C75.7854 100.145 71.8667 97.2877 68.7466 92.9724C65.6265 88.6572 64.0664 83.7964 64.0664 78.3899V65.6926L80.5025 59.5517L96.9385 65.6926V78.3899C96.9385 83.7964 95.3784 88.6572 92.2583 92.9724C89.1382 97.2877 85.2196 100.145 80.5025 101.545ZM80.5025 99.0524C84.5723 97.761 87.9378 95.1782 90.5989 91.304C93.26 87.4298 94.5905 83.1251 94.5905 78.3899V67.2956L80.5025 62.0577L66.4144 67.2956V78.3899C66.4144 83.1251 67.745 87.4298 70.406 91.304C73.0671 95.1782 76.4326 97.761 80.5025 99.0524Z" fill="white"/>
</svg>
