<svg width="49" height="48" viewBox="0 0 49 48" fill="none" xmlns="http://www.w3.org/2000/svg">
<path d="M32.8846 22.1539C31.6513 21.1693 30.5211 20.2552 29.4942 19.4116C28.4673 18.568 27.5833 17.7487 26.8423 16.9539C26.1013 16.159 25.5256 15.3692 25.1154 14.5846C24.7051 13.8 24.5 12.9782 24.5 12.1193C24.5 10.9269 24.8904 9.9423 25.6711 9.1654C26.4519 8.38847 27.4461 8 28.6538 8C29.4509 8 30.1964 8.19552 30.8901 8.58655C31.5839 8.97755 32.2487 9.56537 32.8846 10.35C33.5205 9.59103 34.1981 9.00962 34.9173 8.60575C35.6365 8.20192 36.382 8 37.1538 8C38.3261 8 39.3051 8.40895 40.0907 9.22685C40.8764 10.0447 41.2692 11.0473 41.2692 12.2346C41.2692 13.0679 41.0641 13.8705 40.6538 14.6423C40.2436 15.4141 39.668 16.191 38.9269 16.9731C38.1859 17.7551 37.3019 18.568 36.275 19.4116C35.2481 20.2552 34.118 21.1693 32.8846 22.1539ZM32.8846 19.5577C35.2077 17.7628 36.8526 16.3077 37.8192 15.1923C38.7859 14.0769 39.2692 13.0859 39.2692 12.2193C39.2692 11.5808 39.0673 11.0513 38.6634 10.6308C38.2596 10.2103 37.7513 10 37.1384 10C36.7079 10 36.2881 10.1301 35.879 10.3904C35.4699 10.6507 34.9039 11.1423 34.1808 11.8654L32.8846 13.1385L31.5884 11.8654C30.8397 11.1167 30.2686 10.6186 29.875 10.3711C29.4814 10.1237 29.0666 10 28.6307 10C27.9923 10 27.4776 10.191 27.0865 10.5731C26.6955 10.9551 26.5 11.4782 26.5 12.1423C26.5 13.0603 26.9833 14.0769 27.95 15.1923C28.9167 16.3077 30.5615 17.7628 32.8846 19.5577Z" fill="#0A0C0D"/>
<path d="M19.1154 40.7692L11.5846 33.5539C10.7051 32.7077 9.97112 31.761 9.38265 30.7138C8.79422 29.6665 8.5 28.526 8.5 27.2923C8.5 25.8222 9.01452 24.5726 10.0435 23.5436C11.0726 22.5145 12.3222 22 13.7923 22C14.8846 22 15.8782 22.2955 16.7731 22.8865C17.6679 23.4775 18.4487 24.1948 19.1154 25.0384C19.782 24.1948 20.5628 23.4775 21.4577 22.8865C22.3526 22.2955 23.3462 22 24.4385 22C25.9086 22 27.1581 22.5145 28.1872 23.5436C29.2162 24.5726 29.7308 25.8222 29.7308 27.2923C29.7308 28.526 29.4385 29.6665 28.8539 30.7138C28.2692 31.761 27.5372 32.7077 26.6577 33.5539L19.1154 40.7692ZM19.1154 38.0153L25.1039 32.2807C25.8141 31.5961 26.4295 30.8378 26.95 30.0057C27.4705 29.1737 27.7308 28.2692 27.7308 27.2923C27.7308 26.3795 27.4102 25.6026 26.7692 24.9616C26.1282 24.3205 25.3513 24 24.4385 24C23.6385 24 22.9212 24.2391 22.2866 24.7173C21.6519 25.1955 21.082 25.759 20.5769 26.4077L19.1154 28.2384L17.6538 26.4077C17.1487 25.759 16.5788 25.1955 15.9442 24.7173C15.3096 24.2391 14.5923 24 13.7923 24C12.8795 24 12.1025 24.3205 11.4615 24.9616C10.8205 25.6026 10.5 26.3795 10.5 27.2923C10.5 28.2692 10.7602 29.1737 11.2807 30.0057C11.8013 30.8378 12.4167 31.5961 13.1269 32.2807L19.1154 38.0153Z" fill="#0A0C0D"/>
</svg>
