<svg width="25" height="24" viewBox="0 0 25 24" fill="none" xmlns="http://www.w3.org/2000/svg">
<path d="M20 4.5V9.5H19V6.2327L13.8712 11.3173C14.2007 11.7968 14.4712 12.3032 14.6827 12.8365C14.8942 13.3699 15 13.9243 15 14.5C15 15.8939 14.5153 17.0758 13.546 18.0455C12.5766 19.0152 11.3952 19.5 10.0017 19.5C8.60826 19.5 7.42628 19.0153 6.45578 18.046C5.48526 17.0766 5 15.8952 5 14.5017C5 13.1083 5.48485 11.9263 6.45455 10.9558C7.42425 9.98526 8.60607 9.5 10 9.5C10.5756 9.5 11.1269 9.60481 11.6539 9.81443C12.1808 10.024 12.6821 10.2955 13.1577 10.6288L18.2865 5.5H15V4.5H20ZM9.9969 10.5C8.89128 10.5 7.94873 10.8908 7.16923 11.6724C6.38974 12.4539 6 13.3975 6 14.5031C6 15.6087 6.39078 16.5513 7.17235 17.3308C7.9539 18.1103 8.89748 18.5 10.0031 18.5C11.1087 18.5 12.0513 18.1092 12.8308 17.3276C13.6103 16.5461 14 15.6025 14 14.4969C14 13.3913 13.6092 12.4487 12.8276 11.6692C12.0461 10.8897 11.1025 10.5 9.9969 10.5Z" fill="white"/>
</svg>
