<svg width="49" height="48" viewBox="0 0 49 48" fill="none" xmlns="http://www.w3.org/2000/svg">
<path d="M24.5 11.6154C23.5538 11.6154 22.7532 11.2878 22.0981 10.6327C21.443 9.97756 21.1154 9.17691 21.1154 8.23075C21.1154 7.28461 21.443 6.48398 22.0981 5.82885C22.7532 5.17371 23.5538 4.84615 24.5 4.84615C25.4462 4.84615 26.2468 5.17371 26.902 5.82885C27.5571 6.48398 27.8846 7.28461 27.8846 8.23075C27.8846 9.17691 27.5571 9.97756 26.902 10.6327C26.2468 11.2878 25.4462 11.6154 24.5 11.6154ZM20.1154 43V16.8461C18.0385 16.6795 16.018 16.4487 14.0538 16.1538C12.0897 15.859 10.2385 15.5 8.5 15.0769L8.96155 13.0769C11.4846 13.7 14.0269 14.1506 16.5885 14.4288C19.15 14.707 21.7872 14.8461 24.5 14.8461C27.2128 14.8461 29.85 14.707 32.4116 14.4288C34.9731 14.1506 37.5154 13.7 40.0385 13.0769L40.5 15.0769C38.7615 15.5 36.9102 15.859 34.9461 16.1538C32.982 16.4487 30.9615 16.6795 28.8846 16.8461V43H26.8846V30.5385H22.1154V43H20.1154Z" fill="#0A0C0D"/>
</svg>
