<svg width="49" height="48" viewBox="0 0 49 48" fill="none" xmlns="http://www.w3.org/2000/svg">
<path d="M31.1245 21.2308C31.7466 21.2308 32.2725 21.013 32.702 20.5775C33.1314 20.142 33.3461 19.6131 33.3461 18.9909C33.3461 18.3688 33.1284 17.8429 32.6929 17.4134C32.2574 16.984 31.7285 16.7693 31.1064 16.7693C30.4842 16.7693 29.9584 16.987 29.5289 17.4225C29.0994 17.858 28.8846 18.3869 28.8846 19.0091C28.8846 19.6312 29.1024 20.1571 29.5379 20.5866C29.9734 21.016 30.5023 21.2308 31.1245 21.2308ZM17.8936 21.2308C18.5158 21.2308 19.0417 21.013 19.4712 20.5775C19.9007 20.142 20.1154 19.6131 20.1154 18.9909C20.1154 18.3688 19.8976 17.8429 19.4621 17.4134C19.0266 16.984 18.4977 16.7693 17.8755 16.7693C17.2534 16.7693 16.7276 16.987 16.298 17.4225C15.8686 17.858 15.6538 18.3869 15.6538 19.0091C15.6538 19.6312 15.8716 20.1571 16.3071 20.5866C16.7426 21.016 17.2715 21.2308 17.8936 21.2308ZM24.5 33.7693C26.4077 33.7693 28.1647 33.243 29.7711 32.1904C31.3776 31.1378 32.5846 29.741 33.3923 28H31.4C30.6667 29.2333 29.6917 30.2083 28.475 30.925C27.2583 31.6417 25.9333 32 24.5 32C23.0667 32 21.7417 31.6417 20.525 30.925C19.3083 30.2083 18.3333 29.2333 17.6 28H15.6077C16.4154 29.741 17.6224 31.1378 19.2289 32.1904C20.8352 33.243 22.5923 33.7693 24.5 33.7693ZM24.5067 42C22.0176 42 19.6774 41.5277 17.4862 40.583C15.295 39.6384 13.3889 38.3563 11.7679 36.737C10.147 35.1176 8.86383 33.2133 7.9183 31.0241C6.97277 28.8349 6.5 26.4958 6.5 24.0067C6.5 21.5176 6.97232 19.1774 7.91695 16.9862C8.86162 14.795 10.1437 12.8889 11.7631 11.268C13.3825 9.64705 15.2867 8.36383 17.4759 7.4183C19.6651 6.47277 22.0042 6 24.4933 6C26.9824 6 29.3226 6.47232 31.5138 7.41695C33.705 8.36162 35.6111 9.64365 37.232 11.263C38.853 12.8824 40.1362 14.7867 41.0817 16.9759C42.0272 19.1651 42.5 21.5042 42.5 23.9933C42.5 26.4824 42.0277 28.8226 41.083 31.0138C40.1384 33.205 38.8563 35.1111 37.237 36.732C35.6176 38.353 33.7133 39.6362 31.5241 40.5817C29.3349 41.5272 26.9958 42 24.5067 42ZM24.5 40C28.9667 40 32.75 38.45 35.85 35.35C38.95 32.25 40.5 28.4667 40.5 24C40.5 19.5333 38.95 15.75 35.85 12.65C32.75 9.55 28.9667 8 24.5 8C20.0333 8 16.25 9.55 13.15 12.65C10.05 15.75 8.5 19.5333 8.5 24C8.5 28.4667 10.05 32.25 13.15 35.35C16.25 38.45 20.0333 40 24.5 40Z" fill="#0A0C0D"/>
</svg>
