<svg width="48" height="48" viewBox="0 0 48 48" fill="none" xmlns="http://www.w3.org/2000/svg">
<path d="M30.6245 21.2308C31.2466 21.2308 31.7725 21.013 32.202 20.5775C32.6314 20.142 32.8461 19.6131 32.8461 18.9909C32.8461 18.3688 32.6284 17.8429 32.1929 17.4134C31.7574 16.984 31.2285 16.7693 30.6064 16.7693C29.9842 16.7693 29.4584 16.987 29.0289 17.4225C28.5994 17.858 28.3846 18.3869 28.3846 19.0091C28.3846 19.6312 28.6024 20.1571 29.0379 20.5866C29.4734 21.016 30.0023 21.2308 30.6245 21.2308ZM17.3936 21.2308C18.0158 21.2308 18.5417 21.013 18.9712 20.5775C19.4007 20.142 19.6154 19.6131 19.6154 18.9909C19.6154 18.3688 19.3976 17.8429 18.9621 17.4134C18.5266 16.984 17.9977 16.7693 17.3755 16.7693C16.7534 16.7693 16.2276 16.987 15.798 17.4225C15.3686 17.858 15.1538 18.3869 15.1538 19.0091C15.1538 19.6312 15.3716 20.1571 15.8071 20.5866C16.2426 21.016 16.7715 21.2308 17.3936 21.2308ZM24 27C22.0923 27 20.3352 27.5263 18.7289 28.5788C17.1224 29.6314 15.9154 31.0282 15.1077 32.7693H17.1C17.8333 31.5359 18.8083 30.5609 20.025 29.8443C21.2417 29.1276 22.5667 28.7693 24 28.7693C25.4333 28.7693 26.7583 29.1276 27.975 29.8443C29.1917 30.5609 30.1667 31.5359 30.9 32.7693H32.8923C32.0846 31.0282 30.8776 29.6314 29.2711 28.5788C27.6647 27.5263 25.9077 27 24 27ZM24.0067 42C21.5176 42 19.1774 41.5277 16.9862 40.583C14.795 39.6384 12.8889 38.3563 11.2679 36.737C9.64705 35.1176 8.36383 33.2133 7.4183 31.0241C6.47277 28.8349 6 26.4958 6 24.0067C6 21.5176 6.47232 19.1774 7.41695 16.9862C8.36162 14.795 9.64365 12.8889 11.2631 11.268C12.8825 9.64705 14.7867 8.36383 16.9759 7.4183C19.1651 6.47277 21.5042 6 23.9933 6C26.4824 6 28.8226 6.47232 31.0138 7.41695C33.205 8.36162 35.1111 9.64365 36.732 11.263C38.353 12.8824 39.6362 14.7867 40.5817 16.9759C41.5272 19.1651 42 21.5042 42 23.9933C42 26.4824 41.5277 28.8226 40.583 31.0138C39.6384 33.205 38.3563 35.1111 36.737 36.732C35.1176 38.353 33.2133 39.6362 31.0241 40.5817C28.8349 41.5272 26.4958 42 24.0067 42ZM24 40C28.4667 40 32.25 38.45 35.35 35.35C38.45 32.25 40 28.4667 40 24C40 19.5333 38.45 15.75 35.35 12.65C32.25 9.55 28.4667 8 24 8C19.5333 8 15.75 9.55 12.65 12.65C9.55 15.75 8 19.5333 8 24C8 28.4667 9.55 32.25 12.65 35.35C15.75 38.45 19.5333 40 24 40Z" fill="#0A0C0D"/>
</svg>
