<svg width="49" height="48" viewBox="0 0 49 48" fill="none" xmlns="http://www.w3.org/2000/svg">
<path d="M28.5393 43.8461L13.3086 39.4077V42H5.30859V25.6923H18.0547L32.7701 31.0769V34.3077H42.5009V39.5384L28.5393 43.8461ZM7.30859 40H11.3086V27.6923H7.30859V40ZM28.4393 41.723L40.4548 38.0616V36.3077H26.6124L20.4009 34.2846L21.0624 32.3692L26.9124 34.3077H30.7701V32.4692L17.7393 27.6923H13.3086V37.3077L28.4393 41.723ZM31.8855 24.7693L24.3547 17.5539C23.4752 16.7077 22.7413 15.761 22.1528 14.7138C21.5644 13.6665 21.2701 12.526 21.2701 11.2923C21.2701 9.8222 21.7847 8.57263 22.8137 7.5436C23.8428 6.51453 25.0923 6 26.5624 6C27.6547 6 28.6483 6.2955 29.5432 6.8865C30.4381 7.47753 31.2188 8.19485 31.8855 9.03845C32.5522 8.19485 33.3329 7.47753 34.2278 6.8865C35.1227 6.2955 36.1163 6 37.2086 6C38.6787 6 39.9283 6.51453 40.9573 7.5436C41.9864 8.57263 42.5009 9.8222 42.5009 11.2923C42.5009 12.526 42.2086 13.6665 41.624 14.7138C41.0394 15.761 40.3073 16.7077 39.4278 17.5539L31.8855 24.7693ZM31.8855 22.0154L37.874 16.2807C38.5842 15.5961 39.1996 14.8378 39.7201 14.0057C40.2406 13.1737 40.5009 12.2692 40.5009 11.2923C40.5009 10.3795 40.1804 9.60255 39.5393 8.96155C38.8983 8.32052 38.1214 8 37.2086 8C36.4086 8 35.6913 8.2391 35.0567 8.7173C34.4221 9.1955 33.8522 9.75897 33.347 10.4077L31.8855 12.2384L30.4239 10.4077C29.9188 9.75897 29.349 9.1955 28.7143 8.7173C28.0797 8.2391 27.3624 8 26.5624 8C25.6496 8 24.8727 8.32052 24.2317 8.96155C23.5907 9.60255 23.2701 10.3795 23.2701 11.2923C23.2701 12.2692 23.5304 13.1737 24.0509 14.0057C24.5714 14.8378 25.1868 15.5961 25.897 16.2807L31.8855 22.0154Z" fill="#0A0C0D"/>
</svg>
