<svg width="49" height="48" viewBox="0 0 49 48" fill="none" xmlns="http://www.w3.org/2000/svg">
<path d="M24.5 33.7693C26.4077 33.7693 28.1647 33.243 29.7711 32.1904C31.3776 31.1378 32.5846 29.741 33.3923 28H31.4C30.6667 29.2333 29.6917 30.2083 28.475 30.925C27.2583 31.6417 25.9333 32 24.5 32C23.0667 32 21.7417 31.6417 20.525 30.925C19.3083 30.2083 18.3333 29.2333 17.6 28H15.6077C16.4154 29.741 17.6224 31.1378 19.2289 32.1904C20.8352 33.243 22.5923 33.7693 24.5 33.7693ZM24.5067 42C22.0176 42 19.6774 41.5277 17.4862 40.583C15.295 39.6384 13.3889 38.3564 11.7679 36.737C10.147 35.1176 8.86383 33.2133 7.9183 31.0241C6.97277 28.8349 6.5 26.4958 6.5 24.0067C6.5 21.5176 6.97232 19.1774 7.91695 16.9862C8.86162 14.795 10.1437 12.8889 11.7631 11.268C13.3825 9.64705 15.2867 8.36383 17.4759 7.4183C19.6651 6.47277 22.0042 6 24.4933 6C26.9824 6 29.3226 6.47232 31.5138 7.41695C33.705 8.36162 35.6111 9.64365 37.232 11.263C38.853 12.8824 40.1362 14.7867 41.0817 16.9759C42.0272 19.1651 42.5 21.5042 42.5 23.9933C42.5 26.4824 42.0277 28.8226 41.083 31.0138C40.1384 33.205 38.8564 35.1111 37.237 36.732C35.6176 38.353 33.7133 39.6362 31.5241 40.5817C29.3349 41.5272 26.9958 42 24.5067 42ZM24.5 40C28.9667 40 32.75 38.45 35.85 35.35C38.95 32.25 40.5 28.4667 40.5 24C40.5 19.5333 38.95 15.75 35.85 12.65C32.75 9.55 28.9667 8 24.5 8C20.0333 8 16.25 9.55 13.15 12.65C10.05 15.75 8.5 19.5333 8.5 24C8.5 28.4667 10.05 32.25 13.15 35.35C16.25 38.45 20.0333 40 24.5 40Z" fill="#0A0C0D"/>
<path d="M32.7024 22.8082C32.2729 23.2437 31.7471 23.4615 31.1249 23.4615C30.5027 23.4615 29.9739 23.2468 29.5383 22.8173C29.1028 22.3878 28.885 21.862 28.885 21.2398C28.885 20.6176 29.0998 20.0888 29.5293 19.6532C29.9588 19.2177 30.4846 19 31.1068 19C31.729 19 32.2578 19.2147 32.6933 19.6442C33.1288 20.0737 33.3466 20.5995 33.3466 21.2217C33.3466 21.8439 33.1319 22.3727 32.7024 22.8082Z" fill="#0A0C0D"/>
<path d="M19.4716 22.8082C19.0421 23.2437 18.5163 23.4615 17.8941 23.4615C17.2719 23.4615 16.7431 23.2468 16.3075 22.8173C15.872 22.3878 15.6543 21.862 15.6543 21.2398C15.6543 20.6176 15.869 20.0888 16.2985 19.6532C16.728 19.2177 17.2538 19 17.876 19C18.4982 19 19.027 19.2147 19.4625 19.6442C19.8981 20.0737 20.1158 20.5995 20.1158 21.2217C20.1158 21.8439 19.9011 22.3727 19.4716 22.8082Z" fill="#0A0C0D"/>
<path d="M23.9136 6.3999C20.6069 6.3999 17.5613 7.31215 14.7768 9.13663C10.5 13 9.5 14 8.5 16.4001H39.3272L46.5 16.3999V14.3999H40.378C38.5 15 35.2636 10.5868 33.0504 9.13663C30.2659 7.31215 27.2203 6.3999 23.9136 6.3999Z" fill="black"/>
</svg>
